<mxfile host="65bd71144e">
    <diagram id="EWYQgSu0XfS-d7KVHZ2h" name="Page-1">
        <mxGraphModel dx="3050" dy="1558" grid="1" gridSize="10" guides="1" tooltips="1" connect="1" arrows="1" fold="1" page="1" pageScale="1" pageWidth="850" pageHeight="1100" math="0" shadow="0">
            <root>
                <mxCell id="0"/>
                <mxCell id="1" parent="0"/>
                <mxCell id="49" value="" style="rounded=0;whiteSpace=wrap;html=1;" vertex="1" parent="1">
                    <mxGeometry x="70" y="170" width="60" height="50" as="geometry"/>
                </mxCell>
                <mxCell id="50" value="8" style="rounded=0;whiteSpace=wrap;html=1;" vertex="1" parent="1">
                    <mxGeometry x="70" y="220" width="60" height="30" as="geometry"/>
                </mxCell>
                <mxCell id="51" value="" style="rounded=0;whiteSpace=wrap;html=1;" vertex="1" parent="1">
                    <mxGeometry x="130" y="170" width="60" height="50" as="geometry"/>
                </mxCell>
                <mxCell id="52" value="2" style="rounded=0;whiteSpace=wrap;html=1;" vertex="1" parent="1">
                    <mxGeometry x="130" y="220" width="60" height="30" as="geometry"/>
                </mxCell>
                <mxCell id="53" value="" style="rounded=0;whiteSpace=wrap;html=1;" vertex="1" parent="1">
                    <mxGeometry x="190" y="170" width="60" height="50" as="geometry"/>
                </mxCell>
                <mxCell id="54" value="7" style="rounded=0;whiteSpace=wrap;html=1;" vertex="1" parent="1">
                    <mxGeometry x="190" y="220" width="60" height="30" as="geometry"/>
                </mxCell>
                <mxCell id="55" value="" style="rounded=0;whiteSpace=wrap;html=1;" vertex="1" parent="1">
                    <mxGeometry x="250" y="170" width="60" height="50" as="geometry"/>
                </mxCell>
                <mxCell id="56" value="4" style="rounded=0;whiteSpace=wrap;html=1;" vertex="1" parent="1">
                    <mxGeometry x="250" y="220" width="60" height="30" as="geometry"/>
                </mxCell>
                <mxCell id="57" value="" style="rounded=0;whiteSpace=wrap;html=1;" vertex="1" parent="1">
                    <mxGeometry x="310" y="170" width="60" height="50" as="geometry"/>
                </mxCell>
                <mxCell id="58" value="5" style="rounded=0;whiteSpace=wrap;html=1;" vertex="1" parent="1">
                    <mxGeometry x="310" y="220" width="60" height="30" as="geometry"/>
                </mxCell>
                <mxCell id="59" value="" style="rounded=0;whiteSpace=wrap;html=1;" vertex="1" parent="1">
                    <mxGeometry x="370" y="170" width="60" height="50" as="geometry"/>
                </mxCell>
                <mxCell id="60" value="6" style="rounded=0;whiteSpace=wrap;html=1;" vertex="1" parent="1">
                    <mxGeometry x="370" y="220" width="60" height="30" as="geometry"/>
                </mxCell>
                <mxCell id="61" value="" style="rounded=0;whiteSpace=wrap;html=1;" vertex="1" parent="1">
                    <mxGeometry x="430" y="170" width="60" height="50" as="geometry"/>
                </mxCell>
                <mxCell id="62" value="0" style="rounded=0;whiteSpace=wrap;html=1;" vertex="1" parent="1">
                    <mxGeometry x="430" y="220" width="60" height="30" as="geometry"/>
                </mxCell>
                <mxCell id="63" value="" style="rounded=0;whiteSpace=wrap;html=1;" vertex="1" parent="1">
                    <mxGeometry x="490" y="170" width="60" height="50" as="geometry"/>
                </mxCell>
                <mxCell id="64" value="3" style="rounded=0;whiteSpace=wrap;html=1;" vertex="1" parent="1">
                    <mxGeometry x="490" y="220" width="60" height="30" as="geometry"/>
                </mxCell>
                <mxCell id="65" value="" style="rounded=0;whiteSpace=wrap;html=1;" vertex="1" parent="1">
                    <mxGeometry x="550" y="170" width="60" height="50" as="geometry"/>
                </mxCell>
                <mxCell id="66" value="9" style="rounded=0;whiteSpace=wrap;html=1;" vertex="1" parent="1">
                    <mxGeometry x="550" y="220" width="60" height="30" as="geometry"/>
                </mxCell>
                <mxCell id="67" value="" style="rounded=0;whiteSpace=wrap;html=1;" vertex="1" parent="1">
                    <mxGeometry x="610" y="170" width="60" height="50" as="geometry"/>
                </mxCell>
                <mxCell id="68" value="10" style="rounded=0;whiteSpace=wrap;html=1;" vertex="1" parent="1">
                    <mxGeometry x="610" y="220" width="60" height="30" as="geometry"/>
                </mxCell>
                <mxCell id="69" value="" style="rounded=0;whiteSpace=wrap;html=1;" vertex="1" parent="1">
                    <mxGeometry x="670" y="170" width="60" height="50" as="geometry"/>
                </mxCell>
                <mxCell id="70" value="..." style="rounded=0;whiteSpace=wrap;html=1;" vertex="1" parent="1">
                    <mxGeometry x="670" y="220" width="60" height="30" as="geometry"/>
                </mxCell>
                <mxCell id="71" value="" style="rounded=0;whiteSpace=wrap;html=1;" vertex="1" parent="1">
                    <mxGeometry x="730" y="170" width="60" height="50" as="geometry"/>
                </mxCell>
                <mxCell id="72" value="1" style="rounded=0;whiteSpace=wrap;html=1;" vertex="1" parent="1">
                    <mxGeometry x="730" y="220" width="60" height="30" as="geometry"/>
                </mxCell>
                <mxCell id="73" value="data" style="text;html=1;align=center;verticalAlign=middle;resizable=0;points=[];autosize=1;strokeColor=none;fillColor=none;" vertex="1" parent="1">
                    <mxGeometry x="20" y="180" width="50" height="30" as="geometry"/>
                </mxCell>
                <mxCell id="74" value="cur" style="text;html=1;align=center;verticalAlign=middle;resizable=0;points=[];autosize=1;strokeColor=none;fillColor=none;" vertex="1" parent="1">
                    <mxGeometry x="25" y="220" width="40" height="30" as="geometry"/>
                </mxCell>
                <mxCell id="75" value="" style="ellipse;whiteSpace=wrap;html=1;fillColor=#CCCCCC;" vertex="1" parent="1">
                    <mxGeometry x="75" y="177.5" width="50" height="35" as="geometry"/>
                </mxCell>
                <mxCell id="76" value="" style="shape=parallelogram;perimeter=parallelogramPerimeter;whiteSpace=wrap;html=1;fixedSize=1;fillColor=#FF3333;" vertex="1" parent="1">
                    <mxGeometry x="735" y="182.5" width="50" height="30" as="geometry"/>
                </mxCell>
                <mxCell id="77" value="下标" style="text;html=1;align=center;verticalAlign=middle;resizable=0;points=[];autosize=1;strokeColor=none;fillColor=none;" vertex="1" parent="1">
                    <mxGeometry x="15" y="140" width="50" height="30" as="geometry"/>
                </mxCell>
                <mxCell id="78" value="0" style="text;html=1;align=center;verticalAlign=middle;resizable=0;points=[];autosize=1;strokeColor=none;fillColor=none;" vertex="1" parent="1">
                    <mxGeometry x="85" y="140" width="30" height="30" as="geometry"/>
                </mxCell>
                <mxCell id="79" value="1" style="text;html=1;align=center;verticalAlign=middle;resizable=0;points=[];autosize=1;strokeColor=none;fillColor=none;" vertex="1" parent="1">
                    <mxGeometry x="145" y="140" width="30" height="30" as="geometry"/>
                </mxCell>
                <mxCell id="80" value="2" style="text;html=1;align=center;verticalAlign=middle;resizable=0;points=[];autosize=1;strokeColor=none;fillColor=none;" vertex="1" parent="1">
                    <mxGeometry x="205" y="140" width="30" height="30" as="geometry"/>
                </mxCell>
                <mxCell id="81" value="3" style="text;html=1;align=center;verticalAlign=middle;resizable=0;points=[];autosize=1;strokeColor=none;fillColor=none;" vertex="1" parent="1">
                    <mxGeometry x="265" y="140" width="30" height="30" as="geometry"/>
                </mxCell>
                <mxCell id="82" value="4" style="text;html=1;align=center;verticalAlign=middle;resizable=0;points=[];autosize=1;strokeColor=none;fillColor=none;" vertex="1" parent="1">
                    <mxGeometry x="325" y="140" width="30" height="30" as="geometry"/>
                </mxCell>
                <mxCell id="83" value="5" style="text;html=1;align=center;verticalAlign=middle;resizable=0;points=[];autosize=1;strokeColor=none;fillColor=none;" vertex="1" parent="1">
                    <mxGeometry x="385" y="140" width="30" height="30" as="geometry"/>
                </mxCell>
                <mxCell id="84" value="6" style="text;html=1;align=center;verticalAlign=middle;resizable=0;points=[];autosize=1;strokeColor=none;fillColor=none;" vertex="1" parent="1">
                    <mxGeometry x="445" y="140" width="30" height="30" as="geometry"/>
                </mxCell>
                <mxCell id="85" value="7" style="text;html=1;align=center;verticalAlign=middle;resizable=0;points=[];autosize=1;strokeColor=none;fillColor=none;" vertex="1" parent="1">
                    <mxGeometry x="500" y="140" width="30" height="30" as="geometry"/>
                </mxCell>
                <mxCell id="86" value="8" style="text;html=1;align=center;verticalAlign=middle;resizable=0;points=[];autosize=1;strokeColor=none;fillColor=none;" vertex="1" parent="1">
                    <mxGeometry x="565" y="140" width="30" height="30" as="geometry"/>
                </mxCell>
                <mxCell id="87" value="9" style="text;html=1;align=center;verticalAlign=middle;resizable=0;points=[];autosize=1;strokeColor=none;fillColor=none;" vertex="1" parent="1">
                    <mxGeometry x="625" y="140" width="30" height="30" as="geometry"/>
                </mxCell>
                <mxCell id="88" value="……" style="text;html=1;align=center;verticalAlign=middle;resizable=0;points=[];autosize=1;strokeColor=none;fillColor=none;" vertex="1" parent="1">
                    <mxGeometry x="675" y="140" width="50" height="30" as="geometry"/>
                </mxCell>
                <mxCell id="89" value="999" style="text;html=1;align=center;verticalAlign=middle;resizable=0;points=[];autosize=1;strokeColor=none;fillColor=none;" vertex="1" parent="1">
                    <mxGeometry x="740" y="140" width="40" height="30" as="geometry"/>
                </mxCell>
                <mxCell id="91" value="" style="shape=curlyBracket;whiteSpace=wrap;html=1;rounded=1;labelPosition=left;verticalLabelPosition=middle;align=right;verticalAlign=middle;direction=north;" vertex="1" parent="1">
                    <mxGeometry x="550" y="260" width="180" height="20" as="geometry"/>
                </mxCell>
                <mxCell id="92" value="备用链表" style="text;html=1;align=center;verticalAlign=middle;resizable=0;points=[];autosize=1;strokeColor=none;fillColor=none;" vertex="1" parent="1">
                    <mxGeometry x="605" y="280" width="70" height="30" as="geometry"/>
                </mxCell>
                <mxCell id="93" value="备用&lt;span style=&quot;background-color: transparent;&quot;&gt;链表（空闲空间）&lt;/span&gt;&lt;div&gt;&lt;span style=&quot;background-color: transparent;&quot;&gt;第一个节点的下标改为8&lt;/span&gt;&lt;/div&gt;" style="text;html=1;align=center;verticalAlign=middle;resizable=0;points=[];autosize=1;strokeColor=none;fillColor=none;" vertex="1" parent="1">
                    <mxGeometry x="50" y="290" width="150" height="40" as="geometry"/>
                </mxCell>
                <mxCell id="94" value="" style="endArrow=none;dashed=1;html=1;" edge="1" parent="1" source="93">
                    <mxGeometry width="50" height="50" relative="1" as="geometry">
                        <mxPoint x="65" y="280" as="sourcePoint"/>
                        <mxPoint x="115" y="230" as="targetPoint"/>
                    </mxGeometry>
                </mxCell>
                <mxCell id="96" value="a" style="ellipse;whiteSpace=wrap;html=1;aspect=fixed;fillColor=#66FFB3;" vertex="1" parent="1">
                    <mxGeometry x="140" y="175" width="40" height="40" as="geometry"/>
                </mxCell>
                <mxCell id="97" value="b" style="ellipse;whiteSpace=wrap;html=1;aspect=fixed;fillColor=#66FFB3;" vertex="1" parent="1">
                    <mxGeometry x="200" y="175" width="40" height="40" as="geometry"/>
                </mxCell>
                <mxCell id="98" value="d" style="ellipse;whiteSpace=wrap;html=1;aspect=fixed;fillColor=#66FFB3;" vertex="1" parent="1">
                    <mxGeometry x="260" y="175" width="40" height="40" as="geometry"/>
                </mxCell>
                <mxCell id="99" value="e" style="ellipse;whiteSpace=wrap;html=1;aspect=fixed;fillColor=#66FFB3;" vertex="1" parent="1">
                    <mxGeometry x="320" y="175" width="40" height="40" as="geometry"/>
                </mxCell>
                <mxCell id="100" value="f" style="ellipse;whiteSpace=wrap;html=1;aspect=fixed;fillColor=#66FFB3;" vertex="1" parent="1">
                    <mxGeometry x="380" y="175" width="40" height="40" as="geometry"/>
                </mxCell>
                <mxCell id="102" value="cur改为指向d的下标3" style="text;html=1;align=center;verticalAlign=middle;resizable=0;points=[];autosize=1;strokeColor=none;fillColor=none;" vertex="1" parent="1">
                    <mxGeometry x="400" y="300" width="140" height="30" as="geometry"/>
                </mxCell>
                <mxCell id="103" value="" style="endArrow=none;dashed=1;html=1;" edge="1" parent="1">
                    <mxGeometry width="50" height="50" relative="1" as="geometry">
                        <mxPoint x="470" y="295" as="sourcePoint"/>
                        <mxPoint x="520" y="245" as="targetPoint"/>
                    </mxGeometry>
                </mxCell>
                <mxCell id="104" value="g" style="ellipse;whiteSpace=wrap;html=1;aspect=fixed;fillColor=#66FFB3;" vertex="1" parent="1">
                    <mxGeometry x="440" y="175" width="40" height="40" as="geometry"/>
                </mxCell>
                <mxCell id="105" value="c" style="ellipse;whiteSpace=wrap;html=1;aspect=fixed;fillColor=#66FFB3;" vertex="1" parent="1">
                    <mxGeometry x="500" y="175" width="40" height="40" as="geometry"/>
                </mxCell>
                <mxCell id="106" value="cur改为指向c的下标7" style="text;html=1;align=center;verticalAlign=middle;resizable=0;points=[];autosize=1;strokeColor=none;fillColor=none;" vertex="1" parent="1">
                    <mxGeometry x="200" y="300" width="140" height="30" as="geometry"/>
                </mxCell>
                <mxCell id="107" value="" style="endArrow=none;dashed=1;html=1;entryX=0.5;entryY=1;entryDx=0;entryDy=0;" edge="1" parent="1" target="54">
                    <mxGeometry width="50" height="50" relative="1" as="geometry">
                        <mxPoint x="245" y="310" as="sourcePoint"/>
                        <mxPoint x="295" y="260" as="targetPoint"/>
                    </mxGeometry>
                </mxCell>
            </root>
        </mxGraphModel>
    </diagram>
</mxfile>